<mxfile host="Electron" modified="2023-04-21T21:22:09.039Z" agent="Mozilla/5.0 (Windows NT 10.0; Win64; x64) AppleWebKit/537.36 (KHTML, like Gecko) draw.io/21.1.2 Chrome/106.0.5249.199 Electron/21.4.3 Safari/537.36" etag="SukPiHAHQoFuEkLy4zD8" version="21.1.2" type="device">
  <diagram name="Page-1" id="yGozCTqb1JnejrZYd856">
    <mxGraphModel dx="978" dy="571" grid="1" gridSize="10" guides="1" tooltips="1" connect="1" arrows="1" fold="1" page="1" pageScale="1" pageWidth="690" pageHeight="980" math="0" shadow="0">
      <root>
        <mxCell id="0" />
        <mxCell id="1" parent="0" />
        <mxCell id="rKHckfa7pBqVRsVSqDrz-3" style="edgeStyle=orthogonalEdgeStyle;rounded=0;orthogonalLoop=1;jettySize=auto;html=1;entryX=0.5;entryY=0;entryDx=0;entryDy=0;fontSize=8;" parent="1" source="rKHckfa7pBqVRsVSqDrz-1" target="rKHckfa7pBqVRsVSqDrz-2" edge="1">
          <mxGeometry relative="1" as="geometry" />
        </mxCell>
        <mxCell id="rKHckfa7pBqVRsVSqDrz-17" style="edgeStyle=orthogonalEdgeStyle;rounded=0;orthogonalLoop=1;jettySize=auto;html=1;entryX=0;entryY=0.5;entryDx=0;entryDy=0;fontSize=8;" parent="1" source="rKHckfa7pBqVRsVSqDrz-1" target="rKHckfa7pBqVRsVSqDrz-7" edge="1">
          <mxGeometry relative="1" as="geometry">
            <Array as="points">
              <mxPoint x="340" y="90" />
            </Array>
          </mxGeometry>
        </mxCell>
        <mxCell id="rKHckfa7pBqVRsVSqDrz-1" value="Innsbruck Testicle Cancer Dataset&lt;br style=&quot;font-size: 8px;&quot;&gt;n = 549" style="rounded=1;whiteSpace=wrap;html=1;fontStyle=1;fontSize=8;fillColor=#dae8fc;strokeColor=#6c8ebf;" parent="1" vertex="1">
          <mxGeometry x="280" y="30" width="120" height="40" as="geometry" />
        </mxCell>
        <mxCell id="rKHckfa7pBqVRsVSqDrz-29" style="edgeStyle=orthogonalEdgeStyle;rounded=0;orthogonalLoop=1;jettySize=auto;html=1;exitX=0.5;exitY=1;exitDx=0;exitDy=0;entryX=0.5;entryY=0;entryDx=0;entryDy=0;fontSize=8;" parent="1" source="rKHckfa7pBqVRsVSqDrz-2" target="rKHckfa7pBqVRsVSqDrz-15" edge="1">
          <mxGeometry relative="1" as="geometry">
            <Array as="points">
              <mxPoint x="340" y="180" />
              <mxPoint x="255" y="180" />
            </Array>
          </mxGeometry>
        </mxCell>
        <mxCell id="rKHckfa7pBqVRsVSqDrz-30" style="edgeStyle=orthogonalEdgeStyle;rounded=0;orthogonalLoop=1;jettySize=auto;html=1;fontSize=8;" parent="1" source="rKHckfa7pBqVRsVSqDrz-2" target="rKHckfa7pBqVRsVSqDrz-22" edge="1">
          <mxGeometry relative="1" as="geometry">
            <Array as="points">
              <mxPoint x="340" y="180" />
              <mxPoint x="425" y="180" />
            </Array>
          </mxGeometry>
        </mxCell>
        <mxCell id="rKHckfa7pBqVRsVSqDrz-31" style="edgeStyle=orthogonalEdgeStyle;rounded=0;orthogonalLoop=1;jettySize=auto;html=1;fontSize=8;" parent="1" source="rKHckfa7pBqVRsVSqDrz-2" target="rKHckfa7pBqVRsVSqDrz-25" edge="1">
          <mxGeometry relative="1" as="geometry">
            <Array as="points">
              <mxPoint x="340" y="180" />
              <mxPoint x="595" y="180" />
            </Array>
          </mxGeometry>
        </mxCell>
        <mxCell id="rKHckfa7pBqVRsVSqDrz-32" style="edgeStyle=orthogonalEdgeStyle;rounded=0;orthogonalLoop=1;jettySize=auto;html=1;fontSize=8;" parent="1" source="rKHckfa7pBqVRsVSqDrz-2" target="rKHckfa7pBqVRsVSqDrz-13" edge="1">
          <mxGeometry relative="1" as="geometry">
            <Array as="points">
              <mxPoint x="340" y="180" />
              <mxPoint x="75" y="180" />
            </Array>
          </mxGeometry>
        </mxCell>
        <mxCell id="rKHckfa7pBqVRsVSqDrz-33" style="edgeStyle=orthogonalEdgeStyle;rounded=0;orthogonalLoop=1;jettySize=auto;html=1;exitX=0;exitY=0.5;exitDx=0;exitDy=0;entryX=1;entryY=0.5;entryDx=0;entryDy=0;fontSize=8;" parent="1" source="rKHckfa7pBqVRsVSqDrz-2" target="rKHckfa7pBqVRsVSqDrz-9" edge="1">
          <mxGeometry relative="1" as="geometry" />
        </mxCell>
        <mxCell id="rKHckfa7pBqVRsVSqDrz-2" value="&lt;p style=&quot;margin-bottom: 0in; line-height: 100%&quot;&gt;&amp;nbsp;â‰¤ 50% missing information&lt;/p&gt;n = 518" style="rounded=1;whiteSpace=wrap;html=1;fontSize=8;fillColor=#dae8fc;strokeColor=#6c8ebf;" parent="1" vertex="1">
          <mxGeometry x="280" y="110" width="120" height="40" as="geometry" />
        </mxCell>
        <mxCell id="rKHckfa7pBqVRsVSqDrz-7" value="excluded due to &amp;gt;50% data missingness&lt;br style=&quot;border-color: var(--border-color); font-size: 8px;&quot;&gt;n = 31" style="rounded=1;whiteSpace=wrap;html=1;fontSize=8;fillColor=#f8cecc;strokeColor=#b85450;" parent="1" vertex="1">
          <mxGeometry x="430" y="70" width="120" height="40" as="geometry" />
        </mxCell>
        <mxCell id="rKHckfa7pBqVRsVSqDrz-18" value="" style="group;" parent="1" vertex="1" connectable="0">
          <mxGeometry x="20" y="20" width="140" height="140" as="geometry" />
        </mxCell>
        <mxCell id="rKHckfa7pBqVRsVSqDrz-9" value="Exploratory data analysis&lt;br style=&quot;font-size: 8px;&quot;&gt;max: n = 518" style="rounded=0;whiteSpace=wrap;html=1;fontStyle=1;fontSize=8;fillColor=#d5e8d4;strokeColor=#82b366;" parent="rKHckfa7pBqVRsVSqDrz-18" vertex="1">
          <mxGeometry width="110" height="40" as="geometry" />
        </mxCell>
        <mxCell id="rKHckfa7pBqVRsVSqDrz-10" value="Missing observations per variable&lt;br&gt;&lt;br style=&quot;font-size: 8px;&quot;&gt;Missing observations per participant&lt;br&gt;&lt;br style=&quot;font-size: 8px;&quot;&gt;Variability of study variables&lt;br&gt;&lt;br style=&quot;font-size: 8px;&quot;&gt;Normality of distribution and normality-stabilizing transformations" style="rounded=0;whiteSpace=wrap;html=1;align=left;spacingLeft=5;verticalAlign=top;fontSize=8;fillColor=#f5f5f5;fontColor=#333333;strokeColor=#666666;" parent="rKHckfa7pBqVRsVSqDrz-18" vertex="1">
          <mxGeometry y="50" width="140" height="90" as="geometry" />
        </mxCell>
        <mxCell id="rKHckfa7pBqVRsVSqDrz-19" value="" style="group" parent="1" vertex="1" connectable="0">
          <mxGeometry x="20" y="210" width="140" height="170" as="geometry" />
        </mxCell>
        <mxCell id="rKHckfa7pBqVRsVSqDrz-13" value="Cohort characteristic&lt;br style=&quot;font-size: 8px;&quot;&gt;max: n = 518" style="rounded=0;whiteSpace=wrap;html=1;fontStyle=1;fontSize=8;fillColor=#d5e8d4;strokeColor=#82b366;" parent="rKHckfa7pBqVRsVSqDrz-19" vertex="1">
          <mxGeometry width="110" height="40" as="geometry" />
        </mxCell>
        <mxCell id="rKHckfa7pBqVRsVSqDrz-14" value="Demographics&lt;br&gt;&lt;br style=&quot;font-size: 8px;&quot;&gt;Tumor pathology&lt;br&gt;&lt;br style=&quot;font-size: 8px;&quot;&gt;Biochemical cancer markers&lt;br&gt;&lt;br style=&quot;font-size: 8px;&quot;&gt;Cancer treatment&lt;br&gt;&lt;br style=&quot;font-size: 8px;&quot;&gt;Outcome&lt;br&gt;&lt;br style=&quot;font-size: 8px;&quot;&gt;Pre-surgery sex hormone levels" style="rounded=0;whiteSpace=wrap;html=1;align=left;spacingLeft=5;verticalAlign=top;fontSize=8;fillColor=#f5f5f5;fontColor=#333333;strokeColor=#666666;" parent="rKHckfa7pBqVRsVSqDrz-19" vertex="1">
          <mxGeometry y="50" width="140" height="120" as="geometry" />
        </mxCell>
        <mxCell id="rKHckfa7pBqVRsVSqDrz-20" value="" style="group" parent="1" vertex="1" connectable="0">
          <mxGeometry x="190" y="210" width="140" height="180" as="geometry" />
        </mxCell>
        <mxCell id="rKHckfa7pBqVRsVSqDrz-15" value="Seminoma and&amp;nbsp;non-seminomatous germ cell tumors&lt;br&gt;max: n = 518" style="rounded=0;whiteSpace=wrap;html=1;fontStyle=1;fontSize=8;fillColor=#d5e8d4;strokeColor=#82b366;" parent="rKHckfa7pBqVRsVSqDrz-20" vertex="1">
          <mxGeometry width="130" height="40" as="geometry" />
        </mxCell>
        <mxCell id="rKHckfa7pBqVRsVSqDrz-16" value="Comparison of demographic, clinical and pathologic features, and biochemical cancer markers&lt;br&gt;&lt;br&gt;Differences in pre-surgery levels of sex hormones&lt;br&gt;&lt;br&gt;Multi-parameter signatures of seminoma and mixed-histology cancers&lt;br&gt;&lt;br&gt;Differences in survival" style="rounded=0;whiteSpace=wrap;html=1;align=left;spacingLeft=5;verticalAlign=top;fontSize=8;fillColor=#f5f5f5;fontColor=#333333;strokeColor=#666666;" parent="rKHckfa7pBqVRsVSqDrz-20" vertex="1">
          <mxGeometry y="50" width="140" height="130" as="geometry" />
        </mxCell>
        <mxCell id="rKHckfa7pBqVRsVSqDrz-21" value="" style="group" parent="1" vertex="1" connectable="0">
          <mxGeometry x="350" y="160" width="140" height="280" as="geometry" />
        </mxCell>
        <mxCell id="rKHckfa7pBqVRsVSqDrz-22" value="Pre-surgery sex hormone levels&lt;br&gt;(T, E2, FSH, LH, PRL)&lt;br&gt;max: n = 422" style="rounded=0;whiteSpace=wrap;html=1;fontStyle=1;fontSize=8;fillColor=#d5e8d4;strokeColor=#82b366;" parent="rKHckfa7pBqVRsVSqDrz-21" vertex="1">
          <mxGeometry y="50" width="130" height="40" as="geometry" />
        </mxCell>
        <mxCell id="rKHckfa7pBqVRsVSqDrz-23" value="Trends/components of sex hormone levels (principle component and correcpondence analysis)&lt;br&gt;&lt;br&gt;Hormonal subsets of testicle cancers (latent class analysis)&lt;br&gt;&lt;br&gt;Differences in demographic, clinical and pathologic features, and biochemical cancer markers between the hormonal subsets&lt;br&gt;&lt;br&gt;Multi-paramater signature of the hormonal subsets based on non-endocrine parmeters&lt;br&gt;&lt;br&gt;Survival in the hormonal subsets" style="rounded=0;whiteSpace=wrap;html=1;align=left;spacingLeft=5;verticalAlign=top;fontSize=8;fillColor=#f5f5f5;fontColor=#333333;strokeColor=#666666;" parent="rKHckfa7pBqVRsVSqDrz-21" vertex="1">
          <mxGeometry y="100" width="140" height="180" as="geometry" />
        </mxCell>
        <mxCell id="rKHckfa7pBqVRsVSqDrz-24" value="" style="group" parent="1" vertex="1" connectable="0">
          <mxGeometry x="530" y="210" width="140" height="180" as="geometry" />
        </mxCell>
        <mxCell id="rKHckfa7pBqVRsVSqDrz-25" value="Pre-surgery sex hormone levels and relapse-free survival&lt;br&gt;max: n = 438" style="rounded=0;whiteSpace=wrap;html=1;fontStyle=1;fontSize=8;fillColor=#d5e8d4;strokeColor=#82b366;" parent="rKHckfa7pBqVRsVSqDrz-24" vertex="1">
          <mxGeometry width="130" height="40" as="geometry" />
        </mxCell>
        <mxCell id="rKHckfa7pBqVRsVSqDrz-26" value="Univariable survival analysis&amp;nbsp; with sex hormone concentration and clinical strata (Cox regression)&lt;br&gt;&lt;br&gt;Multi-paramater survival modeling with sex hormone levels/strata, demographic, pathologic, biochemical and therapy features (Elastic Net Cox regression)" style="rounded=0;whiteSpace=wrap;html=1;align=left;spacingLeft=5;verticalAlign=top;fontSize=8;fillColor=#f5f5f5;fontColor=#333333;strokeColor=#666666;" parent="rKHckfa7pBqVRsVSqDrz-24" vertex="1">
          <mxGeometry y="50" width="140" height="100" as="geometry" />
        </mxCell>
        <mxCell id="T_p0wyjpbNfTupfzQzGn-14" style="edgeStyle=orthogonalEdgeStyle;rounded=0;orthogonalLoop=1;jettySize=auto;html=1;exitX=0.5;exitY=1;exitDx=0;exitDy=0;entryX=0.551;entryY=-0.051;entryDx=0;entryDy=0;entryPerimeter=0;" edge="1" parent="1" source="T_p0wyjpbNfTupfzQzGn-1" target="T_p0wyjpbNfTupfzQzGn-3">
          <mxGeometry relative="1" as="geometry" />
        </mxCell>
        <mxCell id="T_p0wyjpbNfTupfzQzGn-15" style="edgeStyle=orthogonalEdgeStyle;rounded=0;orthogonalLoop=1;jettySize=auto;html=1;entryX=0.5;entryY=0;entryDx=0;entryDy=0;" edge="1" parent="1" source="T_p0wyjpbNfTupfzQzGn-1" target="T_p0wyjpbNfTupfzQzGn-12">
          <mxGeometry relative="1" as="geometry">
            <Array as="points">
              <mxPoint x="340" y="530" />
              <mxPoint x="595" y="530" />
            </Array>
          </mxGeometry>
        </mxCell>
        <mxCell id="T_p0wyjpbNfTupfzQzGn-16" style="edgeStyle=orthogonalEdgeStyle;rounded=0;orthogonalLoop=1;jettySize=auto;html=1;entryX=0.5;entryY=0;entryDx=0;entryDy=0;" edge="1" parent="1" source="T_p0wyjpbNfTupfzQzGn-1" target="T_p0wyjpbNfTupfzQzGn-6">
          <mxGeometry relative="1" as="geometry" />
        </mxCell>
        <mxCell id="T_p0wyjpbNfTupfzQzGn-17" style="edgeStyle=orthogonalEdgeStyle;rounded=0;orthogonalLoop=1;jettySize=auto;html=1;exitX=0.5;exitY=1;exitDx=0;exitDy=0;" edge="1" parent="1" source="T_p0wyjpbNfTupfzQzGn-1" target="T_p0wyjpbNfTupfzQzGn-9">
          <mxGeometry relative="1" as="geometry" />
        </mxCell>
        <mxCell id="T_p0wyjpbNfTupfzQzGn-1" value="TCGA Testicle Cancer Dataset&lt;br style=&quot;font-size: 8px;&quot;&gt;n = 149" style="rounded=1;whiteSpace=wrap;html=1;fontStyle=1;fontSize=8;fillColor=#dae8fc;strokeColor=#6c8ebf;" vertex="1" parent="1">
          <mxGeometry x="280" y="470" width="120" height="40" as="geometry" />
        </mxCell>
        <mxCell id="T_p0wyjpbNfTupfzQzGn-2" value="" style="group" vertex="1" connectable="0" parent="1">
          <mxGeometry x="20" y="550" width="140" height="180" as="geometry" />
        </mxCell>
        <mxCell id="T_p0wyjpbNfTupfzQzGn-3" value="Cohort characteristic" style="rounded=0;whiteSpace=wrap;html=1;fontStyle=1;fontSize=8;fillColor=#ffe6cc;strokeColor=#d79b00;" vertex="1" parent="T_p0wyjpbNfTupfzQzGn-2">
          <mxGeometry width="110" height="40" as="geometry" />
        </mxCell>
        <mxCell id="T_p0wyjpbNfTupfzQzGn-4" value="Demographics&lt;br&gt;&lt;br style=&quot;font-size: 8px;&quot;&gt;Tumor pathology&lt;br&gt;&lt;br style=&quot;font-size: 8px;&quot;&gt;Biochemical cancer markers&lt;br&gt;&lt;br style=&quot;font-size: 8px;&quot;&gt;Cancer treatment and outcome&lt;br&gt;&lt;br style=&quot;font-size: 8px;&quot;&gt;Expression of sex hormone-related genes in the cancer tissue in the whole dataset, and seminoma and HSGCT" style="rounded=0;whiteSpace=wrap;html=1;align=left;spacingLeft=5;verticalAlign=top;fontSize=8;fillColor=#f5f5f5;fontColor=#333333;strokeColor=#666666;" vertex="1" parent="T_p0wyjpbNfTupfzQzGn-2">
          <mxGeometry y="50" width="140" height="130" as="geometry" />
        </mxCell>
        <mxCell id="T_p0wyjpbNfTupfzQzGn-5" value="" style="group" vertex="1" connectable="0" parent="1">
          <mxGeometry x="190" y="550" width="140" height="170" as="geometry" />
        </mxCell>
        <mxCell id="T_p0wyjpbNfTupfzQzGn-6" value="Co-regulation of sex hormone-related genes,&amp;nbsp;&lt;br&gt;hormonal subsets" style="rounded=0;whiteSpace=wrap;html=1;fontStyle=1;fontSize=8;fillColor=#ffe6cc;strokeColor=#d79b00;" vertex="1" parent="T_p0wyjpbNfTupfzQzGn-5">
          <mxGeometry width="130" height="40" as="geometry" />
        </mxCell>
        <mxCell id="T_p0wyjpbNfTupfzQzGn-7" value="Principal component analysis&lt;br&gt;&lt;br&gt;Gaussian mixture modeling and hormonal subsets of testicle cancers&lt;br&gt;&lt;br&gt;Expression of the hormonal subset-defining genes" style="rounded=0;whiteSpace=wrap;html=1;align=left;spacingLeft=5;verticalAlign=top;fontSize=8;fillColor=#f5f5f5;fontColor=#333333;strokeColor=#666666;" vertex="1" parent="T_p0wyjpbNfTupfzQzGn-5">
          <mxGeometry y="50" width="140" height="80" as="geometry" />
        </mxCell>
        <mxCell id="T_p0wyjpbNfTupfzQzGn-8" value="" style="group" vertex="1" connectable="0" parent="1">
          <mxGeometry x="360" y="550" width="140" height="170" as="geometry" />
        </mxCell>
        <mxCell id="T_p0wyjpbNfTupfzQzGn-9" value="Characteristic of the hormonal subsets" style="rounded=0;whiteSpace=wrap;html=1;fontStyle=1;fontSize=8;fillColor=#ffe6cc;strokeColor=#d79b00;" vertex="1" parent="T_p0wyjpbNfTupfzQzGn-8">
          <mxGeometry width="130" height="40" as="geometry" />
        </mxCell>
        <mxCell id="T_p0wyjpbNfTupfzQzGn-10" value="Demography, clinicas, cancer markers and treatment&lt;br&gt;&lt;br&gt;Biological processes (Reactome pathways, GSVA), non-malignent cell content (QuanTIseq and xCell)&lt;br&gt;&lt;br&gt;Differential gene expression and differential modulation of signaling&lt;br&gt;&lt;br&gt;Differential protein expression" style="rounded=0;whiteSpace=wrap;html=1;align=left;spacingLeft=5;verticalAlign=top;fontSize=8;fillColor=#f5f5f5;fontColor=#333333;strokeColor=#666666;" vertex="1" parent="T_p0wyjpbNfTupfzQzGn-8">
          <mxGeometry y="50" width="140" height="120" as="geometry" />
        </mxCell>
        <mxCell id="T_p0wyjpbNfTupfzQzGn-11" value="" style="group" vertex="1" connectable="0" parent="1">
          <mxGeometry x="530" y="550" width="140" height="170" as="geometry" />
        </mxCell>
        <mxCell id="T_p0wyjpbNfTupfzQzGn-12" value="Sex hormone-related genes and relapse-free survival" style="rounded=0;whiteSpace=wrap;html=1;fontStyle=1;fontSize=8;fillColor=#ffe6cc;strokeColor=#d79b00;" vertex="1" parent="T_p0wyjpbNfTupfzQzGn-11">
          <mxGeometry width="130" height="40" as="geometry" />
        </mxCell>
        <mxCell id="T_p0wyjpbNfTupfzQzGn-13" value="Univariable analysis: optimal cutoffs of gene expression and hormonal subsets (Peto-Peto test)&lt;br&gt;&lt;br&gt;Multi-parameter survival modeling with demographic, clinical, sex-hormone gene expression and hormonal subset explanatory variables (Elastic Net Cox regression)" style="rounded=0;whiteSpace=wrap;html=1;align=left;spacingLeft=5;verticalAlign=top;fontSize=8;fillColor=#f5f5f5;fontColor=#333333;strokeColor=#666666;" vertex="1" parent="T_p0wyjpbNfTupfzQzGn-11">
          <mxGeometry y="50" width="140" height="110" as="geometry" />
        </mxCell>
      </root>
    </mxGraphModel>
  </diagram>
</mxfile>
